<?xml version="1.0" encoding="UTF-8" standalone="no"?>
<!-- Created with Inkscape (http://www.inkscape.org/) -->
<svg width="111.96155mm" height="100mm" viewBox="0 0 111.96155 75" version="1.1" id="svg1" inkscape:version="1.4.2 (ebf0e940d0, 2025-05-08)" sodipodi:docname="Logo of Energy Star.svg" xmlns:inkscape="http://www.inkscape.org/namespaces/inkscape" xmlns:sodipodi="http://sodipodi.sourceforge.net/DTD/sodipodi-0.dtd" xmlns="http://www.w3.org/2000/svg" xmlns:svg="http://www.w3.org/2000/svg">
  <sodipodi:namedview id="namedview1" pagecolor="#000000" bordercolor="#000000" borderopacity="0.25" inkscape:showpageshadow="2" inkscape:pageopacity="0.0" inkscape:pagecheckerboard="0" inkscape:deskcolor="#d1d1d1" inkscape:document-units="mm" inkscape:zoom="1.326901" inkscape:cx="280.7293" inkscape:cy="271.68567" inkscape:window-width="1870" inkscape:window-height="1011" inkscape:window-x="0" inkscape:window-y="0" inkscape:window-maximized="1" inkscape:current-layer="layer1"/>
  <defs id="defs1">
    <clipPath id="clip-1">
      <path clip-rule="nonzero" d="M 486.90625,745 H 576 v 21.52344 h -89.09375 z m 0,0" id="path54"/>
    </clipPath>
  </defs>
  <g inkscape:label="Layer 1" inkscape:groupmode="layer" id="layer1" transform="translate(-39.854182,-62.059903)">
    <path fill-rule="nonzero" fill="#000000" fill-opacity="1" d="m 95.830045,74.55299 c 21.942655,0 41.396495,10.804419 53.359415,27.37186 V 64.691063 H 42.480427 V 101.91014 C 54.433518,85.352493 73.892308,74.55299 95.830045,74.55299" id="path60" style="stroke-width:1.25667"/>
    <path fill-rule="nonzero" fill="#000000" fill-opacity="1" d="m 95.830045,77.184151 c -22.217549,0 -41.833397,11.349295 -53.349618,28.559789 v 41.77452 H 149.18946 V 105.75869 C 137.67324,88.543278 118.05251,77.184151 95.830045,77.184151" id="path61" style="stroke-width:1.25667"/>
    <path fill-rule="nonzero" fill="#ffff00" fill-opacity="1" d="m 95.830045,77.184151 c 22.222465,0 41.843195,11.359127 53.359415,28.574539 v -3.83384 C 137.22654,85.357409 117.7727,74.55299 95.830045,74.55299 c -21.937737,0 -41.396527,10.799503 -53.349618,27.35715 v 3.8338 C 53.996648,88.533446 73.612496,77.184151 95.830045,77.184151" id="path62" style="stroke-width:1.25667"/>
    <path fill-rule="nonzero" fill="#ffff00" fill-opacity="1" d="m 52.990321,121.01545 c -0.225844,0.43691 -0.387818,0.84924 -0.525248,1.24197 -4.290371,1.2861 -7.147304,0.14712 -7.333858,0.0638 -0.427074,-0.17668 -0.922863,0.0178 -1.099585,0.44671 -0.18666,0.42707 0.01069,0.91794 0.441786,1.09958 0.196278,0.0883 3.171157,1.30577 7.608754,0.23546 0,0.0541 -0.01069,0.11791 -0.01069,0.1717 0,1.24685 0.525249,2.101 1.212472,2.5477 1.92919,1.25668 6.170473,0.18167 12.321282,-6.10172 -0.392699,1.13396 -0.751058,2.38077 -0.981783,3.66691 -0.01069,0.0541 -0.01425,0.11292 -0.01425,0.16208 0,0.35337 0.210884,0.67251 0.539961,0.80503 0.66268,0.27001 1.045582,-0.27964 1.384314,-0.76577 l 0.854148,-1.2714 c 0.73631,-1.10941 2.4004,-3.61294 3.529445,-4.91867 -0.137502,0.71668 -0.27999,1.52666 -0.27999,2.29735 0,1.04066 0.255411,1.98807 1.094705,2.48386 0.70197,0.40745 1.831015,0.54979 4.280538,-0.90812 0.201265,0.56942 0.618508,0.83449 0.854113,0.94741 1.565951,0.72651 4.506347,-0.84432 7.579329,-3.77983 -0.412362,0.92778 -0.73143,1.70338 -0.809976,2.02736 -0.02137,0.0883 -0.0285,0.17669 -0.0285,0.25541 0,0.38779 0.235462,0.6676 0.510537,0.79523 0.672511,0.2946 1.104501,-0.29459 1.443196,-0.78052 l 0.92778,-1.33519 c 0.765805,-1.13396 2.572241,-3.79458 3.627655,-4.89908 0.314188,0.76581 0.868861,1.72793 1.875187,2.29247 -0.294595,0.65776 -0.436906,1.22722 -0.436906,1.70338 0,0.58905 0.21587,1.03083 0.657799,1.33027 0.790349,0.54 1.988109,0.24544 3.239872,-0.43687 -3.990894,3.96147 -5.826825,7.9082 -5.885744,9.66066 0,0.0285 0,0.0688 0,0.098 0,0.97686 0.481077,1.36956 0.775601,1.51682 0.603796,0.30422 1.345022,0.11293 2.204086,-0.5645 3.004232,-2.39064 5.193571,-8.05546 6.312819,-11.52114 1.50211,-1.22722 3.25458,-2.41515 5.27211,-3.50002 -0.65288,1.14867 -1.02595,2.23355 -1.02595,3.11224 0,0.31419 0.0492,0.60867 0.14249,0.86394 0.23083,0.61363 0.72651,1.00633 1.35977,1.07504 1.38431,0.14712 3.30367,-1.30576 5.56664,-4.09398 -0.19129,0.55471 -0.38287,1.09467 -0.57434,1.61992 -6.28332,4.95305 -9.10592,10.24483 -9.46919,13.11651 -0.0285,0.23083 -0.0492,0.4467 -0.0492,0.64797 0,1.14375 0.46145,1.67392 0.88361,1.91444 0.48108,0.27002 1.29105,0.40253 2.48881,-0.5105 1.3254,-1.01612 4.49652,-5.98392 7.56459,-14.16701 4.07432,-3.12695 9.66062,-6.12627 17.09265,-8.17818 0.37307,-0.10294 0.61855,-0.44178 0.61855,-0.81489 0,-0.0687 -0.0107,-0.14712 -0.0285,-0.22086 -0.12753,-0.45161 -0.58905,-0.70688 -1.04067,-0.58904 -6.48954,1.80155 -11.6291,4.31487 -15.64458,7.03441 0.47616,-1.41869 0.95233,-2.9208 1.41374,-4.50143 0.0249,-0.0787 0.0356,-0.15709 0.0356,-0.23546 0,-0.31918 -0.18666,-0.62834 -0.49579,-0.76577 -0.3829,-0.1717 -0.8296,-0.0356 -1.05541,0.31419 -4.18233,6.57788 -6.55826,7.77072 -7.07859,7.76093 -0.0285,-0.0588 -0.0541,-0.1375 -0.0541,-0.25541 0,-0.75106 0.64309,-2.62625 2.71463,-4.8205 0.14712,-0.1571 0.23546,-0.36819 0.23546,-0.57925 0,-0.16707 -0.0588,-0.33378 -0.15709,-0.47617 -0.23084,-0.3238 -0.65289,-0.45161 -1.02104,-0.29459 -2.64099,1.1143 -4.91871,2.43969 -6.901901,3.84363 0.02493,-0.0787 0.03918,-0.14249 0.04417,-0.16707 0.01425,-0.0737 0.0285,-0.1375 0.0285,-0.20625 0,-0.3092 -0.176686,-0.59888 -0.456534,-0.74122 -0.01425,-0.0107 -0.0285,-0.0107 -0.04417,-0.0142 0.579216,-0.45654 1.173215,-0.95724 1.801525,-1.53649 0.6578,-0.6136 0.8296,-1.16831 0.8296,-1.58555 0,-0.18167 -0.0356,-0.32879 -0.0737,-0.45162 -0.1913,-0.594 -0.74123,-0.98178 -1.4972,-1.07504 -1.860447,-0.21587 -4.80088,1.35974 -7.441872,5.24266 -0.898284,-0.48108 -1.251727,-1.65921 -1.413737,-2.19425 l -0.06875,-0.21587 c -0.107935,-0.35338 -0.427074,-0.57434 -0.80011,-0.56942 -0.569456,0.004 -1.183047,0.39765 -2.140287,1.52177 0.01425,-0.0249 0.02494,-0.0541 0.04417,-0.0737 0.05415,-0.11791 0.07374,-0.24045 0.07374,-0.36324 0,-0.28961 -0.142489,-0.56454 -0.402531,-0.7216 -0.373071,-0.22585 -0.854148,-0.13252 -1.109381,0.21587 -4.687985,6.31282 -8.796717,8.0702 -9.434889,7.7511 -0.0036,-0.0178 -0.02137,-0.0638 -0.02137,-0.1717 0,-0.0737 0.01069,-0.17669 0.0285,-0.29958 1.050462,-0.75106 2.287513,-1.72793 3.755254,-3.00423 1.354853,-1.17814 1.669041,-2.13538 1.669041,-2.76368 0,-0.28961 -0.06875,-0.50562 -0.127527,-0.64309 -0.275004,-0.65288 -0.947443,-1.01612 -1.757385,-0.94249 -1.737756,0.15211 -3.912383,2.18938 -5.007052,6.33245 -2.719504,1.85556 -3.45585,1.57575 -3.554024,1.51683 -0.368156,-0.21587 -0.338767,-1.3794 0.08335,-3.45582 0.181674,-0.92778 0.270017,-1.34505 0.06376,-1.73284 -0.206252,-0.37798 -0.559624,-0.59888 -0.967071,-0.61854 -0.883608,-0.0442 -1.884982,0.88361 -3.96635,3.82404 0.824689,-1.95865 1.629714,-3.30367 1.644462,-3.32825 0.08335,-0.1375 0.122896,-0.28462 0.122896,-0.43687 0,-0.26004 -0.122896,-0.52033 -0.358359,-0.68726 -0.353372,-0.25541 -0.849233,-0.18666 -1.133961,0.15709 -7.397656,9.02745 -12.424337,10.9026 -13.862653,9.96994 -0.304213,-0.20127 -0.456498,-0.59397 -0.456498,-1.11434 0,-0.21587 0.03562,-0.46141 0.08834,-0.72159 2.768591,-0.98667 5.969172,-2.8766 9.361186,-6.35208 1.997905,-2.04699 3.072982,-3.96639 3.072982,-5.42429 0,-0.32417 -0.05414,-0.62834 -0.16208,-0.90324 -0.294596,-0.76089 -0.981783,-1.21739 -1.870271,-1.26651 -2.655705,-0.12254 -7.162052,3.34788 -11.246241,11.38371 m 11.167694,-9.69996 c 0.3092,0.0143 0.358359,0.1375 0.387818,0.19628 0.02494,0.0737 0.04417,0.17669 0.04417,0.28961 0,0.73631 -0.643087,2.24826 -2.601701,4.25108 -2.621329,2.68516 -5.100312,4.34925 -7.31423,5.36541 3.89272,-7.48604 7.864022,-10.18103 9.483941,-10.10248 m 16.582192,4.41308 c 0.275004,-0.14711 0.471246,-0.17668 0.584133,-0.17668 -0.03919,0.20126 -0.255411,0.68234 -1.075042,1.40394 -0.613592,0.52525 -1.178132,1.00633 -1.698465,1.42357 0.859064,-1.79664 1.831015,-2.46427 2.189374,-2.65079 m 18.668405,-2.89134 c 0.309201,-0.0737 0.520369,-0.0737 0.652889,-0.0588 -0.0442,0.0588 -0.09333,0.1229 -0.186666,0.20625 -1.92919,1.79176 -3.632571,2.9306 -4.977593,3.37242 2.105876,-2.73425 3.936892,-3.38713 4.511228,-3.51968 m -2.537866,4.49655 c -1.62975,1.43828 -3.112238,2.101 -3.637487,2.10588 0.01069,-0.16208 0.07872,-0.52525 0.407446,-1.20756 0.957239,0.0392 2.032281,-0.26004 3.230041,-0.89832 m -0.652883,4.65361 c -1.143757,2.94531 -2.768591,6.24407 -4.717409,7.79527 -0.09832,0.0737 -0.181673,0.1375 -0.250424,0.18167 0.08834,-1.2125 1.575711,-4.4818 4.967761,-7.9769 m 5.551932,10.43134 c 0,-0.38782 0.0834,-1.00632 0.39761,-1.89485 0.77069,-2.20405 2.70971,-5.34083 6.1361,-8.55124 -2.58207,6.18027 -4.99234,9.83738 -5.87591,10.52464 -0.28961,0.22086 -0.49091,0.31419 -0.59888,0.34838 -0.0356,-0.0787 -0.0588,-0.20625 -0.0588,-0.42707" id="path63" style="stroke-width:1.25667"/>
    <path fill-rule="nonzero" fill="#ffff00" fill-opacity="1" d="m 125.85761,92.54892 c -0.52525,0 -0.9867,0.314188 -1.17813,0.800145 0,0 -4.61927,11.850005 -5.14943,13.199935 -1.44812,0.0834 -14.08355,0.74618 -14.08355,0.74618 -0.6676,0.0392 -1.19284,0.59397 -1.19284,1.25664 0,0.0249 0,0.0492 0,0.0688 0.0392,0.69213 0.62834,1.22722 1.33031,1.19284 l 14.89352,-0.79031 c 0.49087,-0.0249 0.92778,-0.33877 1.10938,-0.80015 0,0 2.81771,-7.24551 4.26583,-10.95168 1.43828,3.70129 4.24616,10.91239 4.24616,10.91239 0.18167,0.45653 0.61363,0.76581 1.09959,0.79526 0,0 7.69221,0.44179 11.61931,0.67252 -3.02878,2.51332 -8.97341,7.45657 -8.97341,7.45657 -0.29459,0.24544 -0.46145,0.59397 -0.46145,0.96704 0,0.10793 0.0143,0.21124 0.0392,0.31418 0,0 1.90952,7.4615 2.89131,11.2855 -3.30859,-2.13534 -9.75884,-6.29807 -9.75884,-6.29807 -0.41236,-0.27002 -0.94741,-0.27002 -1.35973,-0.004 0,0 -6.519,4.1529 -9.89631,6.29807 1.03087,-3.716 2.88152,-10.40189 2.88152,-10.40189 0.0249,-0.10794 0.0392,-0.22584 0.0392,-0.33378 0,-0.55471 -0.36324,-1.06029 -0.92286,-1.21247 -0.67251,-0.18666 -1.36957,0.20625 -1.55121,0.87869 l -3.74545,13.5583 c -0.14249,0.49579 0.0442,1.03575 0.46141,1.34502 0.41728,0.3092 0.9867,0.32381 1.42849,0.0492 0,0 10.75536,-6.84787 11.97767,-7.62347 1.21247,0.78052 11.7862,7.60384 11.7862,7.60384 0.43687,0.27963 0.99649,0.26503 1.41865,-0.0356 0.32879,-0.24544 0.52525,-0.62343 0.52525,-1.02104 0,-0.10295 -0.0143,-0.21587 -0.0442,-0.31419 0,0 -3.13678,-12.2427 -3.49023,-13.62701 1.09467,-0.91303 10.82405,-8.99307 10.82405,-8.99307 0.28961,-0.24543 0.45653,-0.60379 0.45653,-0.96703 0,-0.1375 -0.0249,-0.26503 -0.0687,-0.3927 -0.15709,-0.49579 -0.60379,-0.83452 -1.11925,-0.86398 0,0 -12.55688,-0.7216 -14.005,-0.80506 -0.52524,-1.3499 -5.12485,-13.165565 -5.12485,-13.165565 -0.18666,-0.481078 -0.65288,-0.800181 -1.1683,-0.800181" id="path64" style="stroke-width:1.25667"/>
  </g>
</svg>