<?xml version="1.0" encoding="UTF-8" standalone="no"?>
<svg height="48" width="48" xmlns="http://www.w3.org/2000/svg" xmlns:xlink="http://www.w3.org/1999/xlink">
  <defs>
    <linearGradient id="a" gradientTransform="matrix(1.125 0 0 1 -51.07 0)" gradientUnits="userSpaceOnUse" x2="0" y1="543.8" y2="503.8">
      <stop offset="0" stop-color="#2a2c2f"/>
      <stop offset="1" stop-color="#424649"/>
    </linearGradient>
    <linearGradient id="b" gradientTransform="matrix(1 0 0 1.14286 0 -77.4)" gradientUnits="userSpaceOnUse" x2="0" y1="540.92" y2="522.55">
      <stop offset="0" stop-color="#197cf1"/>
      <stop offset="1" stop-color="#05a0eb"/>
    </linearGradient>
    <linearGradient id="c" gradientTransform="translate(0 -28)" gradientUnits="userSpaceOnUse" x2="0" y1="542.8" y2="533.8">
      <stop offset="0" stop-color="#bcb4a1"/>
      <stop offset="1" stop-color="#c5bfad"/>
    </linearGradient>
    <linearGradient id="d" gradientUnits="userSpaceOnUse" x2="0" y1="540.8" y2="531.8">
      <stop offset="0" stop-color="#1e1f21"/>
      <stop offset="1" stop-color="#242628"/>
    </linearGradient>
    <linearGradient id="e" gradientUnits="userSpaceOnUse" x2="0" xlink:href="#d" y1="528.8" y2="519.8"/>
    <linearGradient id="f" gradientUnits="userSpaceOnUse" x1="32" x2="42" y1="20" y2="30">
      <stop offset="0" stop-color="#383e51"/>
      <stop offset="1" stop-color="#655c6f" stop-opacity="0"/>
    </linearGradient>
    <linearGradient id="g" gradientUnits="userSpaceOnUse" x1="20" x2="32" xlink:href="#f" y1="32" y2="44"/>
    <linearGradient id="h" gradientUnits="userSpaceOnUse" x1="404.57" x2="416.57" xlink:href="#f" y1="519.8" y2="531.8"/>
    <linearGradient id="i" gradientUnits="userSpaceOnUse" x1="392.57" x2="404.57" xlink:href="#f" y1="519.8" y2="531.8"/>
    <linearGradient id="j" gradientUnits="userSpaceOnUse" x1="392.57" x2="404.57" xlink:href="#f" y1="531.8" y2="543.8"/>
  </defs>
  <g transform="translate(-384.57 -499.8)">
    <rect fill="url(#a)" height="40" rx="0" width="36" x="390.57" y="503.8"/>
    <g fill-rule="evenodd">
      <path d="m413.57 519.8-9 9 3 3h18z" fill="url(#h)" opacity=".2"/>
      <path d="m401.57 519.8-9 9 3 3h18z" fill="url(#i)" opacity=".2"/>
      <path d="m401.57 531.8-9 9 3 3h18z" fill="url(#j)" opacity=".2"/>
      <path d="m29 32-9 9 3 3h18z" fill="url(#g)" opacity=".2" transform="translate(384.57 499.8)"/>
    </g>
    <rect fill="#1c1e20" height="1" width="36" x="390.57" y="542.8"/>
    <path d="m40 20-8 21 3 3h7v-22z" fill="url(#f)" fill-rule="evenodd" opacity=".2" transform="translate(384.57 499.8)"/>
    <rect fill="url(#b)" height="21" rx="0" width="8" x="416.57" y="519.8"/>
    <rect fill="url(#c)" height="9" width="32" x="392.57" y="505.8"/>
    <path d="m418.57 534.8v1h4v-1zm0 2v1h4v-1z" fill="#fff"/>
    <g fill="#383432">
      <rect height="1" width="3" x="418.57" y="506.8"/>
      <rect height="5" width="1" x="421.57" y="507.8"/>
      <rect height="1" width="3" x="418.57" y="512.8"/>
      <rect height="5" width="1" x="417.57" y="507.8"/>
    </g>
    <rect fill="url(#d)" height="9" rx="0" width="9" x="392.57" y="531.8"/>
    <g fill="url(#e)">
      <rect height="9" rx="0" width="9" x="392.57" y="519.8"/>
      <rect height="9" rx="0" width="9" x="404.57" y="519.8"/>
    </g>
    <rect fill="url(#d)" height="9" rx="0" width="9" x="404.57" y="531.8"/>
    <g fill="#fff">
      <path d="m12 22v2h-2v1h2v2h1v-2h2v-1h-2v-2z" transform="translate(384.57 499.8)"/>
      <rect height="5" rx="0" transform="rotate(90)" width="1" x="523.8" y="-411.57"/>
      <g transform="translate(384.57 499.8)">
        <path d="m12.5 34a.5.5 0 0 0 -.5.5.5.5 0 0 0 .5.5.5.5 0 0 0 .5-.5.5.5 0 0 0 -.5-.5m-2.5 2v1h5v-1zm2.5 2a.5.5 0 0 0 -.5.5.5.5 0 0 0 .5.5.5.5 0 0 0 .5-.5.5.5 0 0 0 -.5-.5"/>
        <path d="m22.707 34-.707.707 1.793 1.793-1.793 1.793.707.707 1.793-1.793 1.793 1.793.707-.707-1.793-1.793 1.793-1.793-.707-.707-1.793 1.793z"/>
      </g>
    </g>
  </g>
</svg>
